<?xml version="1.0" encoding="utf-8"?><svg xmlns="http://www.w3.org/2000/svg" xmlns:xlink="http://www.w3.org/1999/xlink" width="1440" height="821" preserveAspectRatio="xMidYMid" viewBox="0 0 1440 821" style="z-index:1;margin-right:-2px;display:block;background-repeat-y:initial;background-repeat-x:initial;background-color:rgb(1, 44, 50);animation-play-state:paused" ><g transform="translate(720,410.5) scale(1,1) translate(-720,-410.5)" style="transform:matrix(1, 0, 0, 1, 0, 0);animation-play-state:paused" ><path d="M -100 493.53 C -71.69 493.93 -73.42 490.15 -47.1 490.15 S -18.85 494.63 5.81 494.63 S 33.33 487.07 58.71 487.07 S 85.84 488.11 111.61 488.11 S 139 478.75 164.52 478.75 S 193.01 491.79 217.42 491.79 S 244.19 492.32 270.32 492.32 S 297.26 494.66 323.23 494.66 S 350.46 493.88 376.13 493.88 S 404.55 495.04 429.03 495.04 S 456.29 478.11 481.94 478.11 S 509.77 488.85 534.84 488.85 S 562.16 480.77 587.74 480.77 S 616.21 481.97 640.65 481.97 S 668.75 478.74 693.55 478.74 S 720.21 494.18 746.45 494.18 S 774.01 493.17 799.35 493.17 S 827.65 484.47 852.26 484.47 S 879.71 480.83 905.16 480.83 S 933.32 488.01 958.06 488.01 S 985.5 482.55 1010.97 482.55 S 1037.42 486.78 1063.87 486.78 S 1090.89 478.85 1116.77 478.85 S 1143.39 489.52 1169.68 489.52 S 1196.71 485.7 1222.58 485.7 S 1250.01 478.13 1275.48 478.13 S 1303.18 484.59 1328.39 484.59 S 1356.71 493.09 1381.29 493.09 S 1408.52 490.07 1434.19 490.07 S 1462.06 477.44 1487.1 477.44 S 1515.58 486.41 1540 486.41 S 1567.59 482.97 1592.9 482.97 L 1540 821 L -100 821 Z" fill="#0f3135" stroke-width="0" transform="matrix(1,0,0,1,0,0)" style="transform:matrix(1, 0, 0, 1, 0, 0);animation-play-state:paused" ></path>
<path d="M -100 516.05 C -71.41 510.65 -70.85 503.74 -45.7 503.74 S -17.74 504.17 8.61 504.17 S 37.72 504.42 62.91 504.42 S 91.81 501.64 117.22 501.64 S 145.88 507.52 171.52 507.52 S 200.61 513.76 225.83 513.76 S 253.44 498.44 280.13 498.44 S 309.06 500.34 334.44 500.34 S 362.38 511.07 388.74 511.07 S 417.51 505.18 443.05 505.18 S 471.02 508.09 497.35 508.09 S 526.21 507.12 551.66 507.12 S 579.76 513.09 605.96 513.09 S 634.86 501.64 660.26 501.64 S 688.81 503.33 714.57 503.33 S 741.87 512.01 768.87 512.01 S 796.03 503.35 823.18 503.35 S 850.93 497.16 877.48 497.16 S 905.87 513.49 931.79 513.49 S 960.19 508.07 986.09 508.07 S 1013.44 511.13 1040.4 511.13 S 1069.48 510.27 1094.7 510.27 S 1121.88 505.54 1149.01 505.54 S 1176.5 507.79 1203.31 507.79 S 1231.7 517.06 1257.62 517.06 S 1285.5 515.96 1311.92 515.96 S 1341.03 508.9 1366.23 508.9 S 1394.25 501.32 1420.53 501.32 S 1449.6 506.41 1474.83 506.41 S 1503.21 504.81 1529.14 504.81 S 1557.84 512.22 1583.44 512.22 L 1540 821 L -100 821 Z" fill="#254346" stroke-width="0" transform="matrix(1,0,0,1,1.1340199708938599,0)" style="transform:matrix(1, 0, 0, 1, 1.13402, 0);animation-play-state:paused" ></path>
<path d="M -100 538.48 C -70.56 534.57 -71.6 540.31 -44.22 540.31 S -15.49 529.12 11.56 529.12 S 41.1 534.41 67.35 534.41 S 97.07 529.58 123.13 529.58 S 151.8 544.87 178.91 544.87 S 206.9 536.98 234.69 536.98 S 263.58 532.88 290.48 532.88 S 318.76 532.3 346.26 532.3 S 375.61 530.69 402.04 530.69 S 430.38 531.02 457.82 531.02 S 485.79 545.09 513.61 545.09 S 542.94 520.91 569.39 520.91 S 598.7 542.34 625.17 542.34 S 654.21 530.62 680.95 530.62 S 709.29 538.65 736.73 538.65 S 765.38 529.14 792.52 529.14 S 820.93 534.97 848.3 534.97 S 877.15 517.77 904.08 517.77 S 933.63 526.84 959.86 526.84 S 988.73 535.68 1015.65 535.68 S 1044.23 533.75 1071.43 533.75 S 1100.84 527.11 1127.21 527.11 S 1155.69 533.68 1182.99 533.68 S 1212.17 519.3 1238.78 519.3 S 1268.67 526.09 1294.56 526.09 S 1322.62 533.6 1350.34 533.6 S 1379.74 531.5 1406.12 531.5 S 1435.9 536.3 1461.9 536.3 S 1491.52 534.32 1517.69 534.32 S 1546.25 533.23 1573.47 533.23 L 1540 821 L -100 821 Z" fill="#3b5658" stroke-width="0" transform="matrix(1,0,0,1,3.5863146781921387,0)" style="transform:matrix(1, 0, 0, 1, 3.58631, 0);animation-play-state:paused" ></path>
<path d="M -100 539.92 C -70.94 556.45 -71.21 543.45 -42.66 543.45 S -12.29 538.98 14.69 538.98 S 44.49 552.34 72.03 552.34 S 100.91 543.34 129.37 543.34 S 159.83 559.21 186.71 559.21 S 215.96 547.43 244.06 547.43 S 274.13 564.26 301.4 564.26 S 330.96 557.09 358.74 557.09 S 388.26 562.11 416.08 562.11 S 445.1 547.98 473.43 547.98 S 502.12 566.62 530.77 566.62 S 561.37 568.94 588.11 568.94 S 617.69 558.04 645.45 558.04 S 674.8 550.09 702.8 550.09 S 731.76 553.3 760.14 553.3 S 790.57 550.29 817.48 550.29 S 847.04 553.25 874.83 553.25 S 903.88 549.37 932.17 549.37 S 961.05 560.4 989.51 560.4 S 1020.04 540.69 1046.85 540.69 S 1075.57 558.46 1104.2 558.46 S 1134.16 543.12 1161.54 543.12 S 1191.46 566.29 1218.88 566.29 S 1249.01 554.21 1276.22 554.21 S 1305.92 558.78 1333.57 558.78 S 1364.29 550.71 1390.91 550.71 S 1421.16 565.11 1448.25 565.11 S 1478.86 566.44 1505.59 566.44 S 1534.71 565.73 1562.94 565.73 L 1540 821 L -100 821 Z" fill="#51696b" stroke-width="0" transform="matrix(1,0,0,1,6.4136857986450195,0)" style="transform:matrix(1, 0, 0, 1, 6.41369, 0);animation-play-state:paused" ></path>
<path d="M -100 560.76 C -69.23 577.51 -68.78 592.96 -41.01 592.96 S -10.82 567.4 17.99 567.4 S 48.59 579.3 76.98 579.3 S 108.01 570.16 135.97 570.16 S 165.83 568.31 194.96 568.31 S 224.66 568.61 253.96 568.61 S 283.69 584.16 312.95 584.16 S 343.04 571.87 371.94 571.87 S 401.79 577.04 430.94 577.04 S 460.51 558.78 489.93 558.78 S 519.52 588.37 548.92 588.37 S 578.62 575.19 607.91 575.19 S 639.29 565.39 666.91 565.39 S 697.56 577.6 725.9 577.6 S 756.82 593.2 784.89 593.2 S 815.08 592.24 843.88 592.24 S 873.85 575.73 902.88 575.73 S 933.15 576.36 961.87 576.36 S 992.06 594.37 1020.86 594.37 S 1050.67 571.85 1079.86 571.85 S 1110.77 594.03 1138.85 594.03 S 1169.19 576.45 1197.84 576.45 S 1227.73 590.64 1256.83 590.64 S 1287.09 566.32 1315.83 566.32 S 1346.11 577.58 1374.82 577.58 S 1404.42 568.81 1433.81 568.81 S 1463.33 576.36 1492.81 576.36 S 1522.76 572.66 1551.8 572.66 L 1540 821 L -100 821 Z" fill="#677d7f" stroke-width="0" transform="matrix(1,0,0,1,8.86598014831543,0)" style="transform:matrix(1, 0, 0, 1, 8.86598, 0);animation-play-state:paused" ></path>
<path d="M -100 595.3 C -68.92 583.97 -68.15 602.22 -39.26 602.22 S -8.48 592.43 21.48 592.43 S 52.78 611.71 82.22 611.71 S 112.8 593.89 142.96 593.89 S 174.74 619.29 203.7 619.29 S 234.09 592.71 264.44 592.71 S 295.04 616.26 325.19 616.26 S 357.26 598.26 385.93 598.26 S 418.28 607.52 446.67 607.52 S 477.25 590.72 507.41 590.72 S 538.89 582.18 568.15 582.18 S 598.53 590.62 628.89 590.62 S 661 609.38 689.63 609.38 S 721.38 593.81 750.37 593.81 S 782.1 594.71 811.11 594.71 S 842.58 589.03 871.85 589.03 S 902.5 593.21 932.59 593.21 S 963 599.24 993.33 599.24 S 1024.13 602.06 1054.07 602.06 S 1085.89 587.63 1114.81 587.63 S 1146.28 619.72 1175.56 619.72 S 1207.31 580.92 1236.3 580.92 S 1266.84 615.51 1297.04 615.51 S 1327.82 589.73 1357.78 589.73 S 1388.32 607.01 1418.52 607.01 S 1449.87 582.43 1479.26 582.43 S 1511.07 603.74 1540 603.74 S 1571.87 592.61 1600.74 592.61 L 1540 821 L -100 821 Z" fill="#7e9193" stroke-width="0" transform="matrix(1,0,0,1,10,0)" style="transform:matrix(1, 0, 0, 1, 10, 0);animation-play-state:paused" ></path>
<path d="M -100 604.62 C -67.59 616 -68.66 624.56 -37.4 624.56 S -5.5 644.27 25.19 644.27 S 57.36 628.43 87.79 628.43 S 120.26 610.62 150.38 610.62 S 183.63 629.55 212.98 629.55 S 244.96 614.67 275.57 614.67 S 308.32 630.67 338.17 630.67 S 369.71 616.51 400.76 616.51 S 432.31 601.97 463.36 601.97 S 495.14 609.49 525.95 609.49 S 559.25 625.16 588.55 625.16 S 621.64 625.46 651.15 625.46 S 684.1 643.97 713.74 643.97 S 745.94 619.22 776.34 619.22 S 808.47 604.57 838.93 604.57 S 872.13 602.07 901.53 602.07 S 933.69 631.25 964.12 631.25 S 996.06 610.66 1026.72 610.66 S 1058.46 632.42 1089.31 632.42 S 1121.76 636.52 1151.91 636.52 S 1185.02 626.84 1214.5 626.84 S 1246.85 618.28 1277.1 618.28 S 1310.24 633.6 1339.69 633.6 S 1371.31 634.2 1402.29 634.2 S 1433.83 608.59 1464.89 608.59 S 1498.11 636.52 1527.48 636.52 S 1560.48 629.31 1590.08 629.31 L 1540 821 L -100 821 Z" fill="#95a6a7" stroke-width="0" transform="matrix(1,0,0,1,8.86598014831543,0)" style="transform:matrix(1, 0, 0, 1, 8.86598, 0);animation-play-state:paused" ></path>
<path d="M -100 627.1 C -66.77 640.25 -67.22 659.95 -35.43 659.95 S -1.4 633.72 29.13 633.72 S 61.93 659.41 93.7 659.41 S 127.06 630.54 158.27 630.54 S 192.08 657.91 222.83 657.91 S 256.77 633.49 287.4 633.49 S 321.68 629.05 351.97 629.05 S 385.67 623.34 416.54 623.34 S 449.8 660.94 481.1 660.94 S 515.01 626.59 545.67 626.59 S 578.21 661.31 610.24 661.31 S 643.33 631.4 674.8 631.4 S 708.11 667.8 739.37 667.8 S 772.58 634.11 803.94 634.11 S 837.71 667.69 868.5 667.69 S 901.33 624.34 933.07 624.34 S 965.53 660.09 997.64 660.09 S 1030.97 632.04 1062.2 632.04 S 1094.86 668.59 1126.77 668.59 S 1161.06 626.05 1191.34 626.05 S 1224.61 659.28 1255.91 659.28 S 1290.06 631.11 1320.47 631.11 S 1354.49 663.64 1385.04 663.64 S 1418.98 637.28 1449.61 637.28 S 1482.42 651.82 1514.17 651.82 S 1546.49 631.71 1578.74 631.71 L 1540 821 L -100 821 Z" fill="#adbcbc" stroke-width="0" transform="matrix(1,0,0,1,6.4136857986450195,0)" style="transform:matrix(1, 0, 0, 1, 6.41369, 0);animation-play-state:paused" ></path>
<path d="M -100 651.08 C -66.57 640.58 -65.03 688.09 -33.33 688.09 S 1.95 660.62 33.33 660.62 S 66.84 681.06 100 681.06 S 134.49 649.66 166.67 649.66 S 200.91 690.06 233.33 690.06 S 266.99 659.41 300 659.41 S 333.57 677.32 366.67 677.32 S 400.83 645.11 433.33 645.11 S 468.07 677.64 500 677.64 S 535.24 650.33 566.67 650.33 S 600.02 686.35 633.33 686.35 S 667.38 647.34 700 647.34 S 735.2 681.64 766.67 681.64 S 801.03 651.81 833.33 651.81 S 868.21 679.49 900 679.49 S 934.65 640.51 966.67 640.51 S 1000.27 673.69 1033.33 673.69 S 1067.61 645.97 1100 645.97 S 1134.25 679.38 1166.67 679.38 S 1201.67 649.66 1233.33 649.66 S 1266.99 677.55 1300 677.55 S 1335.34 652.97 1366.67 652.97 S 1401.12 676.47 1433.33 676.47 S 1467.52 657.46 1500 657.46 S 1533.55 676.19 1566.67 676.19 L 1540 821 L -100 821 Z" fill="#c6d2d2" stroke-width="0" transform="matrix(1,0,0,1,3.5863142013549805,0)" style="transform:matrix(1, 0, 0, 1, 3.58631, 0);animation-play-state:paused" ></path>
<path d="M -100 665.77 C -63.64 671.62 -63.99 712.35 -31.09 712.35 S 4.16 663.55 37.82 663.55 S 73.19 716.87 106.72 716.87 S 141.72 672.24 175.63 672.24 S 211.88 716.75 244.54 716.75 S 280.4 671 313.45 671 S 348.77 702.14 382.35 702.14 S 416.93 713.62 451.26 713.62 S 486.9 702.52 520.17 702.52 S 556.37 681.27 589.08 681.27 S 625.46 699.39 657.98 699.39 S 692.84 664.88 726.89 664.88 S 761.42 674.6 795.8 674.6 S 830.86 663.36 864.71 663.36 S 900.1 703.72 933.61 703.72 S 968.69 661.72 1002.52 661.72 S 1037.74 706.36 1071.43 706.36 S 1106.84 669.56 1140.34 669.56 S 1175.15 714.42 1209.24 714.42 S 1244.09 677.65 1278.15 677.65 S 1314.2 699.64 1347.06 699.64 S 1382.4 668.43 1415.97 668.43 S 1450.5 711.42 1484.87 711.42 S 1519.58 674.86 1553.78 674.86 L 1540 821 L -100 821 Z" fill="#dfe8e8" stroke-width="0" transform="matrix(1,0,0,1,1.1340198516845703,0)" style="transform:matrix(1, 0, 0, 1, 1.13402, 0);animation-play-state:paused" ></path></g></svg>